<?xml version="1.0" standalone="no"?>
<!DOCTYPE svg PUBLIC "-//W3C//DTD SVG 1.1//EN" "http://www.w3.org/Graphics/SVG/1.1/DTD/svg11.dtd" >
<svg xmlns="http://www.w3.org/2000/svg">
<metadata></metadata>
<defs>
<font id="technikregular" horiz-adv-x="1126" >
<font-face units-per-em="2048" ascent="1638" descent="-410" />
<missing-glyph horiz-adv-x="593" />
<glyph unicode="&#x2e;&#x2e;&#x2e;" horiz-adv-x="2232" d="M225 82q0 63 45.5 108.5t108.5 45.5t108 -45.5t45 -108.5t-45 -108.5t-108 -45.5t-108.5 45.5t-45.5 108.5zM348 82q0 -12 9.5 -21.5t21.5 -9.5t21.5 9.5t9.5 21.5t-9.5 21.5t-21.5 9.5t-21.5 -9.5t-9.5 -21.5zM963 82q0 63 45 108.5t108 45.5t108.5 -45.5t45.5 -108.5 t-45.5 -108.5t-108.5 -45.5t-108 45.5t-45 108.5zM1085 82q0 -12 9.5 -21.5t21.5 -9.5t21.5 9.5t9.5 21.5t-9.5 21.5t-21.5 9.5t-21.5 -9.5t-9.5 -21.5zM1700 82q0 63 45 108.5t108 45.5t108.5 -45.5t45.5 -108.5t-45.5 -108.5t-108.5 -45.5t-108 45.5t-45 108.5zM1823 82 q0 -12 9 -21.5t21 -9.5t21.5 9.5t9.5 21.5t-9.5 21.5t-21.5 9.5t-21 -9.5t-9 -21.5z" />
<glyph unicode="&#xfb01;" horiz-adv-x="1136" d="M41 1044v164h174q3 179 131 304.5t309 125.5h236v-163h-236q-113 0 -193 -78t-83 -189h594v-1208h-164v1044h-430v-1044h-164v1044h-174z" />
<glyph unicode="&#xfb02;" horiz-adv-x="1136" d="M41 1044v164h174q3 179 131 304.5t309 125.5h318v-1638h-164v1475h-154q-113 0 -193 -78t-83 -189h256v-164h-256v-1044h-164v1044h-174z" />
<glyph unicode="&#xfb03;" horiz-adv-x="1730" d="M41 1044v164h174q3 179 131 304.5t309 125.5v-163q-113 0 -193 -78t-83 -189h430q3 179 131 304.5t309 125.5h236v-163h-236q-113 0 -193 -78t-83 -189h594v-1208h-164v1044h-430v-1044h-164v1044h-430v-1044h-164v1044h-174z" />
<glyph unicode="&#xfb04;" horiz-adv-x="1730" d="M41 1044v164h174q3 179 131 304.5t309 125.5v-163q-113 0 -193 -78t-83 -189h430q3 179 131 304.5t309 125.5h318v-1638h-164v1475h-154q-113 0 -193 -78t-83 -189h256v-164h-256v-1044h-164v1044h-430v-1044h-164v1044h-174z" />
<glyph horiz-adv-x="2048" />
<glyph horiz-adv-x="2048" />
<glyph unicode="&#xd;" horiz-adv-x="2048" />
<glyph unicode=" "  horiz-adv-x="593" />
<glyph unicode="&#x09;" horiz-adv-x="593" />
<glyph unicode="&#xa0;" horiz-adv-x="593" />
<glyph unicode="!" horiz-adv-x="675" d="M184 82q0 63 45.5 108.5t108.5 45.5t108.5 -45.5t45.5 -108.5t-45.5 -108.5t-108.5 -45.5t-108.5 45.5t-45.5 108.5zM256 430v1208h164v-1208h-164zM307 82q0 -12 9.5 -21.5t21.5 -9.5t21.5 9.5t9.5 21.5t-9.5 21.5t-21.5 9.5t-21.5 -9.5t-9.5 -21.5z" />
<glyph unicode="&#x22;" horiz-adv-x="757" d="M143 1249v389h164v-389h-164zM451 1249v389h163v-389h-163z" />
<glyph unicode="#" horiz-adv-x="1187" d="M143 0l119 532h-98v164h135l53 246h-188v164h225l119 532h168l-119 -532h201l119 532h167l-118 -532h98v-164h-135l-53 -246h188v-164h-225l-119 -532h-168l119 532h-201l-119 -532h-168zM467 696h201l53 246h-201z" />
<glyph unicode="$" horiz-adv-x="1167" d="M143 389h164q0 -96 57.5 -170.5t147.5 -97.5v643q-65 28 -111 52.5t-98.5 66.5t-84.5 89.5t-53.5 118.5t-21.5 158q0 163 105 285.5t264 148.5v140h143v-140q158 -26 263.5 -148.5t105.5 -285.5h-164q0 96 -57.5 170t-147.5 97v-644q65 -28 110 -52.5t98 -66t85 -88.5 t54 -118.5t22 -157.5q0 -163 -105.5 -285.5t-263.5 -148.5v-160h-143v160q-159 26 -264 148.5t-105 285.5zM307 1249q0 -117 49.5 -188.5t155.5 -124.5v580q-90 -23 -147.5 -97t-57.5 -170zM655 121q90 23 147.5 97.5t57.5 170.5q0 116 -49.5 185.5t-155.5 123.5v-577z" />
<glyph unicode="%" horiz-adv-x="2068" d="M174 1249q0 179 126 304.5t304 125.5t304 -125.5t126 -304.5t-126 -304.5t-304 -125.5t-304 125.5t-126 304.5zM338 1260q0 -110 78 -188.5t188 -78.5t188 78.5t78 188.5t-78 188t-188 78t-188 -78t-78 -188zM573 0l775 1638h147l-774 -1638h-148zM1034 389 q0 179 126 304.5t304 125.5t304 -125.5t126 -304.5t-126 -304.5t-304 -125.5t-304 125.5t-126 304.5zM1198 389q0 -110 78 -188t188 -78t188.5 78t78.5 188t-78.5 188t-188.5 78t-188 -78t-78 -188z" />
<glyph unicode="&#x26;" horiz-adv-x="1290" d="M164 451q0 112 51 208.5t139 159.5q-88 63 -139 160t-51 209q0 186 132 318t318 132h267v-163h-267q-118 0 -202 -84t-84 -203t84 -203t202 -84h267v307h163v-307h144v-164h-144v-737h-430q-186 0 -318 132.5t-132 318.5zM328 451q0 -119 84 -203t202 -84h267v573h-267 q-118 0 -202 -83.5t-84 -202.5z" />
<glyph unicode="'" horiz-adv-x="430" d="M133 1249v389h164v-389h-164z" />
<glyph unicode="(" horiz-adv-x="778" d="M92 614l383 1024h170l-383 -1024l383 -1024h-170z" />
<glyph unicode=")" horiz-adv-x="778" d="M133 -410l383 1024l-383 1024h170l383 -1024l-383 -1024h-170z" />
<glyph unicode="*" horiz-adv-x="1024" d="M113 1024l174 225l-174 226h153l174 -226l-174 -225h-153zM440 860v778h144v-389l174 226h153l-174 -226l174 -225h-153l-174 225v-389h-144z" />
<glyph unicode="+" horiz-adv-x="1187" d="M164 543v143h358v358h144v-358h358v-143h-358v-359h-144v359h-358z" />
<glyph unicode="," horiz-adv-x="675" d="M184 82q0 63 45.5 108.5t108.5 45.5t108.5 -45.5t45.5 -108.5v-471h-144v317h-10q-63 0 -108.5 45.5t-45.5 108.5zM307 82q0 -12 9.5 -21.5t21.5 -9.5t21.5 9.5t9.5 21.5t-9.5 21.5t-21.5 9.5t-21.5 -9.5t-9.5 -21.5z" />
<glyph unicode="-" horiz-adv-x="757" d="M164 543v143h430v-143h-430z" />
<glyph unicode="." horiz-adv-x="675" d="M184 82q0 63 45.5 108.5t108.5 45.5t108.5 -45.5t45.5 -108.5t-45.5 -108.5t-108.5 -45.5t-108.5 45.5t-45.5 108.5zM307 82q0 -12 9.5 -21.5t21.5 -9.5t21.5 9.5t9.5 21.5t-9.5 21.5t-21.5 9.5t-21.5 -9.5t-9.5 -21.5z" />
<glyph unicode="/" horiz-adv-x="901" d="M174 0l385 1638h168l-385 -1638h-168z" />
<glyph unicode="0" horiz-adv-x="1208" d="M164 389v860q0 183 128.5 312t311.5 129t311.5 -129t128.5 -312v-860q0 -183 -128.5 -311.5t-311.5 -128.5t-311.5 128.5t-128.5 311.5zM328 389q0 -115 80 -195.5t196 -80.5t196.5 80.5t80.5 195.5v664zM328 586l553 663q0 115 -80.5 196t-196.5 81q-115 0 -195.5 -80.5 t-80.5 -196.5v-663z" />
<glyph unicode="1" horiz-adv-x="1044" d="M123 0v164h358v1311h-358v163h522v-1474h359v-164h-881z" />
<glyph unicode="2" horiz-adv-x="1167" d="M164 0v389q0 118 33.5 204.5t108.5 145.5t129 87.5t157 71.5q8 3 12 5q146 61 211.5 136.5t65.5 209.5q0 115 -80.5 196t-196.5 81q-115 0 -195.5 -80.5t-80.5 -196.5h-164q0 183 128.5 312t311.5 129t311.5 -129t128.5 -312q0 -117 -33 -203t-108 -146t-127 -88 t-156 -72q-11 -5 -16 -7q-146 -63 -211 -137t-65 -207v-225h716v-164h-880z" />
<glyph unicode="3" horiz-adv-x="1187" d="M143 389h164q0 -115 80.5 -195.5t196.5 -80.5t196 80.5t80 195.5q0 116 -80.5 196.5t-195.5 80.5v307q116 0 196 80.5t80 195.5q0 116 -80.5 196.5t-195.5 80.5q-116 0 -196.5 -81t-80.5 -196h-164q0 183 129 312t312 129t311.5 -129t128.5 -312q0 -157 -98 -277 t-248 -153q150 -33 248 -153t98 -277q0 -183 -128.5 -311.5t-311.5 -128.5t-312 128.5t-129 311.5z" />
<glyph unicode="4" horiz-adv-x="1208" d="M123 307v164l430 1167h154l-420 -1167h420v1167h163v-1167h205v-164h-205v-307h-163v307h-584z" />
<glyph unicode="5" horiz-adv-x="1167" d="M164 389h164q0 -115 80 -195.5t196 -80.5t196.5 80.5t80.5 195.5t-80.5 196t-196.5 81h-399v972h799v-163h-635v-646h235q183 0 311.5 -128.5t128.5 -311.5t-128.5 -311.5t-311.5 -128.5t-311.5 128.5t-128.5 311.5z" />
<glyph unicode="6" horiz-adv-x="1208" d="M164 389v860q0 183 128.5 312t311.5 129t311.5 -129t128.5 -312h-163q0 115 -80.5 196t-196.5 81q-115 0 -195.5 -80.5t-80.5 -196.5v-557q96 137 276 137q183 0 311.5 -128.5t128.5 -311.5t-128.5 -311.5t-311.5 -128.5t-311.5 128.5t-128.5 311.5zM328 389 q0 -115 80 -195.5t196 -80.5t196.5 80.5t80.5 195.5t-80.5 196t-196.5 81q-115 0 -195.5 -80.5t-80.5 -196.5z" />
<glyph unicode="7" horiz-adv-x="942" d="M41 1475v163h881v-163l-574 -1475h-174l574 1475h-707z" />
<glyph unicode="8" horiz-adv-x="1208" d="M164 389q0 157 97.5 277t246.5 153q-149 33 -246.5 153t-97.5 277q0 183 128.5 312t311.5 129t311.5 -129t128.5 -312q0 -157 -98 -277t-248 -153q150 -33 248 -153t98 -277q0 -183 -128.5 -311.5t-311.5 -128.5t-311.5 128.5t-128.5 311.5zM328 389q0 -115 80 -195.5 t196 -80.5t196.5 80.5t80.5 195.5t-80.5 196t-196.5 81q-115 0 -195.5 -80.5t-80.5 -196.5zM328 1249q0 -115 80 -195.5t196 -80.5t196.5 80.5t80.5 195.5t-80.5 196t-196.5 81q-115 0 -195.5 -80.5t-80.5 -196.5z" />
<glyph unicode="9" horiz-adv-x="1208" d="M164 389h164q0 -115 80 -195.5t196 -80.5t196.5 80.5t80.5 195.5v557q-96 -137 -277 -137q-183 0 -311.5 128.5t-128.5 311.5t128.5 312t311.5 129t311.5 -129t128.5 -312v-860q0 -183 -128.5 -311.5t-311.5 -128.5t-311.5 128.5t-128.5 311.5zM328 1249 q0 -115 80 -195.5t196 -80.5t196.5 80.5t80.5 195.5t-80.5 196t-196.5 81q-115 0 -195.5 -80.5t-80.5 -196.5z" />
<glyph unicode=":" horiz-adv-x="675" d="M184 82q0 63 45.5 108.5t108.5 45.5t108.5 -45.5t45.5 -108.5t-45.5 -108.5t-108.5 -45.5t-108.5 45.5t-45.5 108.5zM184 1126q0 63 45.5 108.5t108.5 45.5t108.5 -45.5t45.5 -108.5t-45.5 -108t-108.5 -45t-108.5 45t-45.5 108zM307 82q0 -12 9.5 -21.5t21.5 -9.5 t21.5 9.5t9.5 21.5t-9.5 21.5t-21.5 9.5t-21.5 -9.5t-9.5 -21.5zM307 1126q0 -12 9.5 -21t21.5 -9t21.5 9t9.5 21t-9.5 21.5t-21.5 9.5t-21.5 -9.5t-9.5 -21.5z" />
<glyph unicode=";" horiz-adv-x="675" d="M184 82q0 63 45.5 108.5t108.5 45.5t108.5 -45.5t45.5 -108.5v-471h-144v317h-10q-63 0 -108.5 45.5t-45.5 108.5zM184 1126q0 63 45.5 108.5t108.5 45.5t108.5 -45.5t45.5 -108.5t-45.5 -108t-108.5 -45t-108.5 45t-45.5 108zM307 82q0 -12 9.5 -21.5t21.5 -9.5 t21.5 9.5t9.5 21.5t-9.5 21.5t-21.5 9.5t-21.5 -9.5t-9.5 -21.5zM307 1126q0 -12 9.5 -21t21.5 -9t21.5 9t9.5 21t-9.5 21.5t-21.5 9.5t-21.5 -9.5t-9.5 -21.5z" />
<glyph unicode="&#x3c;" horiz-adv-x="1187" d="M164 461v153l860 -378v-154zM164 614v154l860 379v-154z" />
<glyph unicode="=" horiz-adv-x="1187" d="M164 338v143h860v-143h-860zM164 748v143h860v-143h-860z" />
<glyph unicode="&#x3e;" horiz-adv-x="1187" d="M164 82v154l860 378v-153zM164 993v154l860 -379v-154z" />
<glyph unicode="?" horiz-adv-x="1167" d="M164 1249q0 183 128.5 312t311.5 129t311.5 -129t128.5 -312q0 -171 -115.5 -297t-283.5 -141v-381h-164v543h123q116 0 196.5 80.5t80.5 195.5t-80.5 196t-196.5 81q-115 0 -195.5 -80.5t-80.5 -196.5h-164zM410 82q0 63 45 108.5t108 45.5t108.5 -45.5t45.5 -108.5 t-45.5 -108.5t-108.5 -45.5t-108 45.5t-45 108.5zM532 82q0 -12 9.5 -21.5t21.5 -9.5t21.5 9.5t9.5 21.5t-9.5 21.5t-21.5 9.5t-21.5 -9.5t-9.5 -21.5z" />
<glyph unicode="@" horiz-adv-x="1904" d="M82 430q0 178 64 338.5t173.5 277.5t264 185.5t327.5 68.5q218 0 350 -123.5t132 -336.5v-840h-154v111q-91 -162 -287 -162q-184 0 -312 124t-128 306q0 183 128.5 311.5t311.5 128.5h277v21q0 145 -84 221t-234 76q-186 0 -339 -95t-239.5 -257.5t-86.5 -354.5 q0 -143 56 -274t150.5 -225.5t225.5 -150.5t274 -56t274 56t226 150.5t151 225.5t56 274h164q0 -177 -69 -338t-185.5 -277.5t-278 -185.5t-338.5 -69t-338 69t-277.5 185.5t-185.5 277.5t-69 338zM676 379q0 -115 79.5 -190.5t196.5 -75.5q116 0 196.5 80.5t80.5 195.5v266 h-277q-116 0 -196 -80.5t-80 -195.5z" />
<glyph unicode="A" horiz-adv-x="1146" d="M61 0l345 1638h167l-245 -1167h489l-244 1167h168l344 -1638h-167l-66 307h-559l-64 -307h-168z" />
<glyph unicode="B" horiz-adv-x="1208" d="M205 0v1638h430q186 0 318 -132t132 -318q0 -112 -51.5 -209.5t-140.5 -159.5q89 -63 140.5 -159.5t51.5 -208.5q0 -186 -132 -318.5t-318 -132.5h-430zM369 164h266q119 0 203 84t84 203q0 118 -84 202t-203 84h-266v-573zM369 901h266q119 0 203 84.5t84 202.5 t-84 202.5t-203 84.5h-266v-574z" />
<glyph unicode="C" horiz-adv-x="1187" d="M164 389v860q0 183 128.5 312t311.5 129t311.5 -129t128.5 -312h-163q0 115 -80.5 196t-196.5 81q-115 0 -195.5 -80.5t-80.5 -196.5v-860q0 -115 80 -195.5t196 -80.5t196.5 80.5t80.5 195.5h163q0 -183 -128.5 -311.5t-311.5 -128.5t-311.5 128.5t-128.5 311.5z" />
<glyph unicode="D" horiz-adv-x="1249" d="M205 0v1638h440q183 0 311.5 -128.5t128.5 -311.5v-758q0 -183 -128.5 -311.5t-311.5 -128.5h-440zM369 164h276q116 0 196.5 80.5t80.5 195.5v758q0 116 -81 196.5t-196 80.5h-276v-1311z" />
<glyph unicode="E" horiz-adv-x="1085" d="M205 0v1638h737v-163h-573v-574h573v-164h-573v-573h573v-164h-737z" />
<glyph unicode="F" horiz-adv-x="1044" d="M205 0v1638h737v-163h-573v-574h573v-164h-573v-737h-164z" />
<glyph unicode="G" horiz-adv-x="1208" d="M164 389v860q0 183 128.5 312t311.5 129t311.5 -129t128.5 -312h-163q0 115 -80.5 196t-196.5 81q-115 0 -195.5 -80.5t-80.5 -196.5v-860q0 -115 80 -195.5t196 -80.5t196.5 80.5t80.5 195.5v348h-277v164h440v-512q0 -183 -128.5 -311.5t-311.5 -128.5t-311.5 128.5 t-128.5 311.5z" />
<glyph unicode="H" horiz-adv-x="1290" d="M205 0v1638h164v-737h553v737h163v-1638h-163v737h-553v-737h-164z" />
<glyph unicode="I" horiz-adv-x="593" d="M215 0v1638h164v-1638h-164z" />
<glyph unicode="J" horiz-adv-x="737" d="M92 -51v164q116 0 196.5 80.5t80.5 195.5v1249h163v-1249q0 -183 -128.5 -311.5t-311.5 -128.5z" />
<glyph unicode="K" horiz-adv-x="1167" d="M205 0v1638h164v-737h172l368 737h176l-409 -819l409 -819h-176l-368 737h-172v-737h-164z" />
<glyph unicode="L" horiz-adv-x="962" d="M205 0v1638h164v-1474h532v-164h-696z" />
<glyph unicode="M" horiz-adv-x="1843" d="M205 0v1638h164v-1638h-164zM369 1638h168l385 -1638h-168zM922 0l385 1638h168l-385 -1638h-168zM1475 0v1638h163v-1638h-163z" />
<glyph unicode="N" horiz-adv-x="1331" d="M205 0v1638h164v-1638h-164zM369 1638h168l426 -1638h-168zM963 0v1638h163v-1638h-163z" />
<glyph unicode="O" horiz-adv-x="1208" d="M164 389v860q0 183 128.5 312t311.5 129t311.5 -129t128.5 -312v-860q0 -183 -128.5 -311.5t-311.5 -128.5t-311.5 128.5t-128.5 311.5zM328 389q0 -115 80 -195.5t196 -80.5t196.5 80.5t80.5 195.5v860q0 115 -80.5 196t-196.5 81q-115 0 -195.5 -80.5t-80.5 -196.5 v-860z" />
<glyph unicode="P" d="M205 0v1638h430q186 0 318 -132t132 -318t-132 -318.5t-318 -132.5h-266v-737h-164zM369 901h266q119 0 203 84.5t84 202.5t-84 202.5t-203 84.5h-266v-574z" />
<glyph unicode="Q" horiz-adv-x="1208" d="M164 389v860q0 183 128.5 312t311.5 129t311.5 -129t128.5 -312v-860q0 -145 -84 -260t-217 -158l261 -381h-189l-246 361q-171 12 -288 138t-117 300zM328 389q0 -115 80 -195.5t196 -80.5t196.5 80.5t80.5 195.5v860q0 115 -80.5 196t-196.5 81q-115 0 -195.5 -80.5 t-80.5 -196.5v-860z" />
<glyph unicode="R" horiz-adv-x="1208" d="M205 0v1638h430q186 0 318 -132t132 -318q0 -164 -106 -290t-266 -155l372 -743h-176l-368 737h-172v-737h-164zM369 901h266q119 0 203 84.5t84 202.5t-84 202.5t-203 84.5h-266v-574z" />
<glyph unicode="S" horiz-adv-x="1167" d="M143 389h164q0 -115 80.5 -195.5t196.5 -80.5t196 80.5t80 195.5q0 133 -65 207t-211 137q-158 67 -221 107q-165 103 -205 274q-15 62 -15 135q0 183 129 312t312 129t311.5 -129t128.5 -312h-164q0 116 -80.5 196.5t-195.5 80.5q-116 0 -196.5 -81t-80.5 -196 q0 -134 65.5 -209.5t211.5 -136.5q159 -66 225 -108q166 -106 203 -284q12 -56 12 -122q0 -183 -128.5 -311.5t-311.5 -128.5t-312 128.5t-129 311.5z" />
<glyph unicode="T" horiz-adv-x="1003" d="M61 1475v163h881v-163h-358v-1475h-164v1475h-359z" />
<glyph unicode="U" horiz-adv-x="1208" d="M164 389v1249h164v-1249q0 -115 80 -195.5t196 -80.5t196.5 80.5t80.5 195.5v1249h163v-1249q0 -183 -128.5 -311.5t-311.5 -128.5t-311.5 128.5t-128.5 311.5z" />
<glyph unicode="V" horiz-adv-x="1146" d="M61 1638h168l344 -1638h-167zM573 0l345 1638h167l-344 -1638h-168z" />
<glyph unicode="W" horiz-adv-x="2088" d="M61 1638h168l344 -1638h-167zM573 0l304 1638h167l-303 -1638h-168zM1044 1638h168l304 -1638h-168zM1516 0l344 1638h168l-345 -1638h-167z" />
<glyph unicode="X" horiz-adv-x="1146" d="M61 0l340 819l-340 819h172l340 -819l-340 -819h-172zM573 819l340 819h172l-340 -819l340 -819h-172z" />
<glyph unicode="Y" horiz-adv-x="1064" d="M20 1638h173l339 -819l340 819h172l-430 -1030v-608h-163v608z" />
<glyph unicode="Z" horiz-adv-x="1044" d="M82 0v164l706 1311h-706v163h881v-163l-707 -1311h707v-164h-881z" />
<glyph unicode="[" horiz-adv-x="716" d="M164 -410v2048h389v-163h-225v-1721h225v-164h-389z" />
<glyph unicode="\" horiz-adv-x="901" d="M154 1638h168l385 -1638h-168z" />
<glyph unicode="]" horiz-adv-x="716" d="M164 -246h225v1721h-225v163h389v-2048h-389v164z" />
<glyph unicode="^" horiz-adv-x="1187" d="M123 819l307 819h164l-307 -819h-164zM594 1638h164l307 -819h-164z" />
<glyph unicode="_" horiz-adv-x="1187" d="M164 -51h860v-144h-860v144z" />
<glyph unicode="`" d="M276 1544v176l328 -213v-176z" />
<glyph unicode="a" d="M123 379q0 183 128.5 311.5t311.5 128.5h277q0 115 -81 196t-196 81t-195.5 -80.5t-80.5 -196.5h-164q0 183 128.5 312t311.5 129t312 -129t129 -312v-819h-154v111q-91 -162 -287 -162q-184 0 -312 124t-128 306zM287 379q0 -115 79.5 -190.5t196.5 -75.5 q114 0 195.5 80t81.5 196v266h-277q-115 0 -195.5 -80.5t-80.5 -195.5z" />
<glyph unicode="b" horiz-adv-x="1167" d="M164 0v1638h164v-516q97 138 276 138q183 0 311.5 -129t128.5 -312v-430q0 -183 -128.5 -311.5t-311.5 -128.5q-196 0 -287 162v-111h-153zM328 389q0 -115 80 -195.5t196 -80.5t196.5 80.5t80.5 195.5v430q0 115 -80.5 196t-196.5 81q-115 0 -195.5 -80.5t-80.5 -196.5 v-430z" />
<glyph unicode="c" d="M123 389v430q0 183 128.5 312t311.5 129t312 -129t129 -312h-164q0 115 -81 196t-196 81t-195.5 -80.5t-80.5 -196.5v-430q0 -115 80.5 -195.5t195.5 -80.5q116 0 196.5 80.5t80.5 195.5h164q0 -183 -129 -311.5t-312 -128.5t-311.5 128.5t-128.5 311.5z" />
<glyph unicode="d" horiz-adv-x="1167" d="M123 389v430q0 183 128.5 312t311.5 129q180 0 277 -138v516h164v-1638h-154v111q-91 -162 -287 -162q-183 0 -311.5 128.5t-128.5 311.5zM287 389q0 -115 80.5 -195.5t195.5 -80.5q114 0 195.5 80t81.5 196v430q0 115 -81 196t-196 81t-195.5 -80.5t-80.5 -196.5v-430z " />
<glyph unicode="e" d="M123 389v430q0 183 128.5 312t311.5 129t312 -129t129 -312q0 -182 -128.5 -306t-312.5 -124h-276q0 -115 80.5 -195.5t195.5 -80.5q116 0 196.5 80.5t80.5 195.5h164q0 -183 -129 -311.5t-312 -128.5t-311.5 128.5t-128.5 311.5zM287 553h276q117 0 197 76t80 190 q0 115 -81 196t-196 81t-195.5 -80.5t-80.5 -196.5v-266z" />
<glyph unicode="f" horiz-adv-x="655" d="M41 1044v164h174q3 179 131 304.5t309 125.5v-163q-113 0 -193 -78t-83 -189h256v-164h-256v-1044h-164v1044h-174z" />
<glyph unicode="g" horiz-adv-x="1167" d="M123 0h164q0 -116 80.5 -196t195.5 -80q116 0 196.5 80.5t80.5 195.5v94q-92 -145 -277 -145q-183 0 -311.5 128.5t-128.5 311.5v430q0 183 128.5 312t311.5 129q190 0 287 -154v102h154v-1208q0 -183 -129 -311.5t-312 -128.5t-311.5 128.5t-128.5 311.5zM287 389 q0 -115 80.5 -195.5t195.5 -80.5q116 0 196.5 80.5t80.5 195.5v430q0 115 -81 196t-196 81t-195.5 -80.5t-80.5 -196.5v-430z" />
<glyph unicode="h" horiz-adv-x="1167" d="M164 0v1638h164v-516q97 138 276 138q183 0 311.5 -129t128.5 -312v-819h-163v819q0 115 -80.5 196t-196.5 81q-115 0 -195.5 -80.5t-80.5 -196.5v-819h-164z" />
<glyph unicode="i" horiz-adv-x="491" d="M123 1556q0 51 36 87t87 36t87 -36t36 -87t-36 -86.5t-87 -35.5t-87 35.5t-36 86.5zM164 0v1208h164v-1208h-164z" />
<glyph unicode="j" horiz-adv-x="522" d="M-82 -276q116 0 196.5 80.5t80.5 195.5v1208h163v-1208q0 -183 -128.5 -311.5t-311.5 -128.5v164zM154 1556q0 51 35.5 87t86.5 36t87 -36t36 -87t-36 -86.5t-87 -35.5t-86.5 35.5t-35.5 86.5z" />
<glyph unicode="k" horiz-adv-x="1044" d="M164 0v1638h164v-931h127l364 501h195l-430 -594l430 -614h-195l-373 532h-118v-532h-164z" />
<glyph unicode="l" horiz-adv-x="491" d="M164 0v1638h164v-1638h-164z" />
<glyph unicode="m" horiz-adv-x="1884" d="M164 0v1208h153v-102q44 73 117 113.5t170 40.5q112 0 208.5 -53t156.5 -142q57 90 148 142.5t204 52.5q183 0 311.5 -129t128.5 -312v-819h-164v819q0 116 -80.5 196.5t-195.5 80.5t-196 -81t-81 -196v-819h-163v819q0 115 -80.5 196t-196.5 81q-115 0 -195.5 -80.5 t-80.5 -196.5v-819h-164z" />
<glyph unicode="n" horiz-adv-x="1167" d="M164 0v1208h153v-102q44 73 117 113.5t170 40.5q183 0 311.5 -129t128.5 -312v-819h-163v819q0 115 -80.5 196t-196.5 81q-115 0 -195.5 -80.5t-80.5 -196.5v-819h-164z" />
<glyph unicode="o" d="M123 389v430q0 183 128.5 312t311.5 129t312 -129t129 -312v-430q0 -183 -129 -311.5t-312 -128.5t-311.5 128.5t-128.5 311.5zM287 389q0 -115 80.5 -195.5t195.5 -80.5q116 0 196.5 80.5t80.5 195.5v430q0 115 -81 196t-196 81t-195.5 -80.5t-80.5 -196.5v-430z" />
<glyph unicode="p" horiz-adv-x="1167" d="M164 -410v1618h153v-102q44 73 117 113.5t170 40.5q183 0 311.5 -129t128.5 -312v-430q0 -183 -128.5 -311.5t-311.5 -128.5q-187 0 -276 145v-504h-164zM328 389q0 -115 80 -195.5t196 -80.5t196.5 80.5t80.5 195.5v430q0 115 -80.5 196t-196.5 81q-115 0 -195.5 -80.5 t-80.5 -196.5v-430z" />
<glyph unicode="q" horiz-adv-x="1167" d="M102 389v430q0 183 129 312t312 129q193 0 286 -154v102h154v-1618h-164v504q-89 -145 -276 -145q-183 0 -312 128.5t-129 311.5zM266 389q0 -115 80.5 -195.5t196.5 -80.5q115 0 195.5 80.5t80.5 195.5v430q0 116 -80.5 196.5t-195.5 80.5t-196 -81t-81 -196v-430z" />
<glyph unicode="r" horiz-adv-x="655" d="M164 0v1208h153v-123q44 73 117 113.5t170 40.5v-164q-116 0 -196 -80.5t-80 -195.5v-799h-164z" />
<glyph unicode="s" d="M123 389h164q0 -87 46.5 -151.5t114 -94.5t142.5 -30q106 0 178 54t72 161q0 45 -15 77.5t-37.5 51t-61.5 30.5t-74 17t-89 8q-440 29 -440 348q0 173 127.5 286.5t312.5 113.5q183 0 312 -129t129 -312h-164q0 115 -81 196t-196 81q-118 0 -197 -65.5t-79 -170.5 q0 -45 14.5 -77.5t37.5 -52t61 -31.5t74.5 -16.5t88.5 -6.5q95 -4 172.5 -25t139 -61t95.5 -106.5t34 -155.5q0 -94 -35.5 -168.5t-95 -119.5t-133.5 -68t-156 -23q-87 0 -168 28t-147 81t-106 139t-40 192z" />
<glyph unicode="t" horiz-adv-x="655" d="M41 1044v164h174v430h164v-430h256v-164h-256v-1044h-164v1044h-174z" />
<glyph unicode="u" horiz-adv-x="1167" d="M123 389v819h164v-819q0 -115 80.5 -195.5t195.5 -80.5q116 0 196.5 80.5t80.5 195.5v819h164v-1208h-154v111q-91 -162 -287 -162q-183 0 -311.5 128.5t-128.5 311.5z" />
<glyph unicode="v" horiz-adv-x="1064" d="M41 1208h170l321 -1208h-170zM532 0l322 1208h170l-322 -1208h-170z" />
<glyph unicode="w" horiz-adv-x="1966" d="M41 1208h170l321 -1208h-170zM532 0l271 1208h170l-271 -1208h-170zM973 1208h170l291 -1208h-170zM1434 0l321 1208h170l-321 -1208h-170z" />
<glyph unicode="x" horiz-adv-x="1064" d="M41 0l317 614l-317 594h174l317 -594l-317 -614h-174zM532 614l318 594h174l-317 -594l317 -614h-174z" />
<glyph unicode="y" horiz-adv-x="1064" d="M41 1208h170l321 -1208h-170zM424 -410l108 410l322 1208h170l-430 -1618h-170z" />
<glyph unicode="z" horiz-adv-x="962" d="M82 0v164l614 880h-614v164h799v-164l-615 -880h615v-164h-799z" />
<glyph unicode="{" horiz-adv-x="921" d="M72 532v164q115 0 195.5 80.5t80.5 196.5v266q0 183 128.5 311.5t311.5 128.5v-163q-115 0 -195.5 -80.5t-80.5 -196.5v-266q0 -116 -55.5 -210t-151.5 -149q96 -55 151.5 -148.5t55.5 -209.5v-266q0 -116 80.5 -196.5t195.5 -80.5v-164q-183 0 -311.5 129t-128.5 312 v266q0 116 -80 196t-196 80z" />
<glyph unicode="|" horiz-adv-x="757" d="M297 -410v2335h164v-2335h-164z" />
<glyph unicode="}" horiz-adv-x="921" d="M133 -287q115 0 196 80.5t81 196.5v266q0 116 55 209.5t151 148.5q-96 55 -151 149t-55 210v266q0 115 -81 196t-196 81v163q183 0 311.5 -128.5t128.5 -311.5v-266q0 -115 80.5 -196t196.5 -81v-164q-116 0 -196.5 -80.5t-80.5 -195.5v-266q0 -183 -128.5 -312 t-311.5 -129v164z" />
<glyph unicode="~" horiz-adv-x="1187" d="M154 512q0 101 72 173.5t173 72.5q52 0 108 -19t96.5 -42.5t91 -42.5t93.5 -19t73 29.5t30 72.5h143q0 -101 -72.5 -173t-173.5 -72q-53 0 -110.5 19t-98 42t-90.5 42t-90 19q-43 0 -72.5 -29.5t-29.5 -72.5h-143z" />
<glyph unicode="&#xa1;" horiz-adv-x="675" d="M184 1147q0 63 45.5 108t108.5 45t108.5 -45t45.5 -108t-45.5 -108.5t-108.5 -45.5t-108.5 45.5t-45.5 108.5zM256 -410v1209h164v-1209h-164zM307 1147q0 -12 9.5 -21.5t21.5 -9.5t21.5 9.5t9.5 21.5t-9.5 21.5t-21.5 9.5t-21.5 -9.5t-9.5 -21.5z" />
<glyph unicode="&#xa2;" d="M123 389v430q0 163 105 285.5t264 148.5v160h143v-160q158 -26 263.5 -148.5t105.5 -285.5h-164q0 96 -57.5 169t-147.5 97v-964q90 23 147.5 97.5t57.5 170.5h164q0 -163 -105.5 -285.5t-263.5 -148.5v-160h-143v160q-159 26 -264 148.5t-105 285.5zM287 389 q0 -96 57.5 -170.5t147.5 -97.5v964q-90 -24 -147.5 -97t-57.5 -169v-430z" />
<glyph unicode="&#xa3;" horiz-adv-x="1187" d="M82 0v164h82v584h-72v143h72v358q0 183 128.5 312t311.5 129t311.5 -129t128.5 -312h-163q0 115 -80.5 196t-196.5 81q-115 0 -195.5 -80.5t-80.5 -196.5v-358h276v-143h-276v-584h716v-164h-962z" />
<glyph unicode="&#xa4;" horiz-adv-x="1208" d="M127 252l113 115q-76 109 -76 247q0 136 76 248l-113 115l115 115l114 -113q113 76 248 76q132 0 248 -76l115 113l114 -115l-112 -115q75 -115 75 -248q0 -135 -75 -247l112 -115l-114 -115l-115 113q-112 -76 -248 -76q-139 0 -248 76l-114 -113zM328 614 q0 -116 80 -196t196 -80t196.5 80.5t80.5 195.5q0 116 -80.5 196.5t-196.5 80.5q-115 0 -195.5 -80.5t-80.5 -196.5z" />
<glyph unicode="&#xa5;" horiz-adv-x="1064" d="M20 1638h173l339 -819l340 819h172l-346 -829h265v-143h-326l-23 -58v-209h349v-143h-349v-256h-163v256h-349v143h349v209l-25 58h-324v143h265z" />
<glyph unicode="&#xa6;" horiz-adv-x="757" d="M297 -410v1065h164v-1065h-164zM297 860v1065h164v-1065h-164z" />
<glyph unicode="&#xa7;" horiz-adv-x="1208" d="M164 389h164q0 -115 80 -195.5t196 -80.5t196.5 80.5t80.5 195.5v127q-96 -137 -277 -137q-183 0 -311.5 128.5t-128.5 311.5v430q0 183 128.5 312t311.5 129t311.5 -129t128.5 -312h-163q0 115 -80.5 196t-196.5 81q-115 0 -195.5 -80.5t-80.5 -196.5v-127 q97 138 276 138q183 0 311.5 -129t128.5 -312v-430q0 -183 -128.5 -311.5t-311.5 -128.5t-311.5 128.5t-128.5 311.5zM328 819q0 -115 80 -195.5t196 -80.5t196.5 80.5t80.5 195.5t-80.5 196t-196.5 81q-115 0 -195.5 -80.5t-80.5 -196.5z" />
<glyph unicode="&#xa8;" d="M215 1556q0 51 36 87t87 36t87 -36t36 -87t-36 -86.5t-87 -35.5t-87 35.5t-36 86.5zM666 1556q0 51 35.5 87t86.5 36t87 -36t36 -87t-36 -86.5t-87 -35.5t-86.5 35.5t-35.5 86.5z" />
<glyph unicode="&#xa9;" horiz-adv-x="1454" d="M164 512v184q0 153 75.5 283t205 205.5t282.5 75.5t282.5 -75.5t205 -205.5t75.5 -283v-184q0 -153 -75.5 -282.5t-205 -205t-282.5 -75.5t-282.5 75.5t-205 205t-75.5 282.5zM307 512q0 -173 123.5 -296.5t296.5 -123.5t296.5 123.5t123.5 296.5v184q0 173 -123.5 296.5 t-296.5 123.5t-296.5 -123.5t-123.5 -296.5v-184zM461 471v266q0 110 78 188.5t188 78.5t188 -78.5t78 -188.5h-123q0 60 -41.5 102t-101.5 42t-101.5 -42t-41.5 -102v-266q0 -60 41.5 -101.5t101.5 -41.5t101.5 41.5t41.5 101.5h123q0 -110 -78 -188t-188 -78t-188 78 t-78 188z" />
<glyph unicode="&#xaa;" horiz-adv-x="860" d="M164 911q0 109 77.5 182.5t188.5 73.5h143q0 60 -41.5 102t-101.5 42t-101.5 -42t-41.5 -102h-123q0 110 78 188.5t188 78.5t188 -78.5t78 -188.5v-481h-102v45q-54 -86 -164 -86t-188 78t-78 188zM174 440v133h512v-133h-512zM287 911q0 -60 41.5 -101.5t101.5 -41.5 t101.5 41.5t41.5 101.5v133h-143q-61 0 -102 -37t-41 -96z" />
<glyph unicode="&#xab;" horiz-adv-x="1187" d="M164 440v174l430 -327v-174zM164 614v174l430 328v-174zM594 440v174l430 -327v-174zM594 614v174l430 328v-174z" />
<glyph unicode="&#xac;" horiz-adv-x="1187" d="M164 748v143h860v-522h-143v379h-717z" />
<glyph unicode="&#xae;" horiz-adv-x="1454" d="M164 512v184q0 153 75.5 283t205 205.5t282.5 75.5t282.5 -75.5t205 -205.5t75.5 -283v-184q0 -153 -75.5 -282.5t-205 -205t-282.5 -75.5t-282.5 75.5t-205 205t-75.5 282.5zM307 512q0 -173 123.5 -296.5t296.5 -123.5t296.5 123.5t123.5 296.5v184q0 173 -123.5 296.5 t-296.5 123.5t-296.5 -123.5t-123.5 -296.5v-184zM481 246v717h256q110 0 188.5 -78.5t78.5 -188.5q0 -82 -45 -148t-117 -97l162 -205h-146l-145 184h-109v-184h-123zM604 553h133q60 0 102 41.5t42 101.5t-42 102t-102 42h-133v-287z" />
<glyph unicode="&#xaf;" d="M338 1444v143h430v-143h-430z" />
<glyph unicode="&#xb0;" horiz-adv-x="819" d="M164 1444q0 101 72.5 173.5t173.5 72.5t173 -72.5t72 -173.5t-72 -173.5t-173 -72.5t-173.5 72.5t-72.5 173.5zM317 1444q0 -38 27.5 -65t65.5 -27t65 27t27 65t-27 65t-65 27t-65.5 -27t-27.5 -65z" />
<glyph unicode="&#xb1;" horiz-adv-x="1187" d="M164 72v143h860v-143h-860zM164 625v143h358v358h144v-358h358v-143h-358v-359h-144v359h-358z" />
<glyph unicode="&#xb2;" horiz-adv-x="860" d="M164 860v287q0 59 17.5 104.5t46.5 72.5t65.5 49.5t75 35.5t75 29.5t65.5 33.5t46.5 46.5t17.5 68.5q0 60 -41.5 102t-101.5 42t-101.5 -42t-41.5 -102h-123q0 110 78 188t188 78t188 -78t78 -188q0 -67 -22.5 -116t-58.5 -77t-79.5 -48.5t-87.5 -37t-80 -35.5 t-58.5 -50.5t-22.5 -75.5v-164h409v-123h-532z" />
<glyph unicode="&#xb3;" horiz-adv-x="860" d="M164 1075h123q0 -60 41.5 -101.5t101.5 -41.5t101.5 41.5t41.5 101.5t-41.5 102t-101.5 42v225q60 0 101.5 41.5t41.5 101.5t-41.5 102t-101.5 42t-101.5 -42t-41.5 -102h-123q0 110 78 188t188 78t188 -78t78 -188q0 -91 -54 -161.5t-138 -94.5q84 -25 138 -95.5 t54 -160.5q0 -110 -78 -188t-188 -78t-188 78t-78 188z" />
<glyph unicode="&#xb4;" d="M440 1331v176l328 213v-176z" />
<glyph unicode="&#xb5;" horiz-adv-x="1208" d="M164 -410v1618h164v-819q0 -115 80 -195.5t196 -80.5t196.5 80.5t80.5 195.5v819h163v-1208h-153v111q-91 -162 -287 -162q-180 0 -276 137v-496h-164z" />
<glyph unicode="&#xb6;" horiz-adv-x="1146" d="M82 1188q0 186 132 318t318 132h164v-1638h-164v737q-186 0 -318 132.5t-132 318.5zM246 1188q0 -119 84 -203t202 -84v574q-118 0 -202 -84t-84 -203zM819 0v1638h164v-1638h-164z" />
<glyph unicode="&#xb7;" horiz-adv-x="675" d="M184 614q0 63 45.5 108.5t108.5 45.5t108.5 -45.5t45.5 -108.5t-45.5 -108t-108.5 -45t-108.5 45t-45.5 108zM307 614q0 -12 9.5 -21t21.5 -9t21.5 9t9.5 21t-9.5 21.5t-21.5 9.5t-21.5 -9.5t-9.5 -21.5z" />
<glyph unicode="&#xb8;" d="M420 -307h184q17 0 29 12t12 29t-12 29t-29 12h-102v123h102q68 0 116 -48t48 -116t-48 -116t-116 -48h-184v123z" />
<glyph unicode="&#xb9;" horiz-adv-x="860" d="M164 860v123h215v696h-215v123h338v-819h194v-123h-532z" />
<glyph unicode="&#xba;" horiz-adv-x="860" d="M164 911v256q0 110 78 188.5t188 78.5t188 -78.5t78 -188.5v-256q0 -110 -78 -188t-188 -78t-188 78t-78 188zM174 440v133h512v-133h-512zM287 911q0 -60 41.5 -101.5t101.5 -41.5t101.5 41.5t41.5 101.5v256q0 60 -41.5 102t-101.5 42t-101.5 -42t-41.5 -102v-256z" />
<glyph unicode="&#xbb;" horiz-adv-x="1187" d="M164 113v174l430 327v-174zM164 942v174l430 -328v-174zM594 113v174l430 327v-174zM594 942v174l430 -328v-174z" />
<glyph unicode="&#xbc;" horiz-adv-x="1617" d="M164 696v123h215v697h-215v122h338v-819h194v-123h-532zM410 0l774 1638h147l-774 -1638h-147zM881 154v122l262 666h127l-262 -666h262v666h123v-666h102v-122h-102v-154h-123v154h-389z" />
<glyph unicode="&#xbd;" horiz-adv-x="1699" d="M164 696v123h215v697h-215v122h338v-819h194v-123h-532zM410 0l774 1638h147l-774 -1638h-147zM1004 0v287q0 59 17.5 104.5t46.5 72.5t65.5 49.5t75 35.5t75 29.5t65.5 33.5t46.5 46.5t17.5 68.5q0 60 -41.5 101.5t-101.5 41.5t-102 -41.5t-42 -101.5h-122q0 110 78 188 t188 78t188 -78t78 -188q0 -67 -22.5 -116t-59 -77t-80 -48.5t-87 -37t-80 -35.5t-59 -50.5t-22.5 -75.5v-164h410v-123h-532z" />
<glyph unicode="&#xbe;" horiz-adv-x="1617" d="M164 911h123q0 -60 41.5 -101.5t101.5 -41.5t101.5 41.5t41.5 101.5t-41.5 102t-101.5 42v225q60 0 101.5 41.5t41.5 101.5t-41.5 102t-101.5 42t-101.5 -42t-41.5 -102h-123q0 110 78 188.5t188 78.5t188 -78.5t78 -188.5q0 -91 -54 -161.5t-138 -94.5q84 -25 138 -95.5 t54 -160.5q0 -110 -78 -188t-188 -78t-188 78t-78 188zM410 0l774 1638h147l-774 -1638h-147zM881 154v122l262 666h127l-262 -666h262v666h123v-666h102v-122h-102v-154h-123v154h-389z" />
<glyph unicode="&#xbf;" horiz-adv-x="1167" d="M143 -20q0 171 116 297t284 141v381h164v-543h-123q-116 0 -196.5 -80.5t-80.5 -195.5q0 -116 80.5 -196.5t196.5 -80.5q115 0 195.5 80.5t80.5 196.5h164q0 -183 -128.5 -312t-311.5 -129t-312 129t-129 312zM471 1147q0 63 45.5 108t108.5 45t108 -45t45 -108 t-45 -108.5t-108 -45.5t-108.5 45.5t-45.5 108.5zM594 1147q0 -12 9.5 -21.5t21.5 -9.5t21 9.5t9 21.5t-9 21.5t-21 9.5t-21.5 -9.5t-9.5 -21.5z" />
<glyph unicode="&#xc0;" horiz-adv-x="1146" d="M61 0l345 1638h167l-245 -1167h489l-244 1167h168l344 -1638h-167l-66 307h-559l-64 -307h-168zM389 1853v164l328 -164v-163z" />
<glyph unicode="&#xc1;" horiz-adv-x="1146" d="M61 0l345 1638h167l-245 -1167h489l-244 1167h168l344 -1638h-167l-66 307h-559l-64 -307h-168zM430 1690v163l328 164v-164z" />
<glyph unicode="&#xc2;" horiz-adv-x="1146" d="M61 0l345 1638h167l-245 -1167h489l-244 1167h168l344 -1638h-167l-66 307h-559l-64 -307h-168zM328 1690v163l245 164l246 -164v-163l-246 163z" />
<glyph unicode="&#xc3;" horiz-adv-x="1146" d="M61 0l345 1638h167l-245 -1167h489l-244 1167h168l344 -1638h-167l-66 307h-559l-64 -307h-168zM184 1710q0 101 72.5 173.5t173.5 72.5q42 0 83.5 -16t70 -35.5t65 -35.5t68.5 -16q43 0 72.5 30t29.5 73h144q0 -101 -72.5 -173.5t-173.5 -72.5q-54 0 -106.5 25.5 t-98.5 51t-82 25.5q-43 0 -72.5 -29.5t-29.5 -72.5h-144z" />
<glyph unicode="&#xc4;" horiz-adv-x="1146" d="M61 0l345 1638h167l-245 -1167h489l-244 1167h168l344 -1638h-167l-66 307h-559l-64 -307h-168zM225 1843q0 51 36 87t87 36t87 -36t36 -87t-36 -87t-87 -36t-87 36t-36 87zM676 1843q0 51 36 87t87 36t87 -36t36 -87t-36 -87t-87 -36t-87 36t-36 87z" />
<glyph unicode="&#xc5;" horiz-adv-x="1146" d="M61 0l345 1638h28q-45 51 -45 123q0 77 54 131t130 54q77 0 131 -54t54 -131q0 -70 -47 -123h30l344 -1638h-167l-66 307h-559l-64 -307h-168zM328 471h489l-231 1106h-13h-14zM522 1761q0 -22 14.5 -36.5t36.5 -14.5t37 14.5t15 36.5t-15 36.5t-37 14.5t-36.5 -14.5 t-14.5 -36.5z" />
<glyph unicode="&#xc6;" horiz-adv-x="1495" d="M51 0l395 1638h168l-282 -1167h340l-58 1167h738v-163h-574l35 -574h539v-164h-529l37 -573h492v-164h-656l-16 307h-387l-74 -307h-168z" />
<glyph unicode="&#xc7;" horiz-adv-x="1187" d="M164 389v860q0 183 128.5 312t311.5 129t311.5 -129t128.5 -312h-163q0 115 -80.5 196t-196.5 81q-115 0 -195.5 -80.5t-80.5 -196.5v-860q0 -115 80 -195.5t196 -80.5t196.5 80.5t80.5 195.5h163q0 -183 -128.5 -311.5t-311.5 -128.5t-311.5 128.5t-128.5 311.5z M461 -307h184q17 0 29 12t12 29t-12 29t-29 12h-102v123h102q67 0 115.5 -48t48.5 -116t-48.5 -116t-115.5 -48h-184v123z" />
<glyph unicode="&#xc8;" horiz-adv-x="1085" d="M205 0v1638h737v-163h-573v-574h573v-164h-573v-573h573v-164h-737zM399 1853v164l328 -164v-163z" />
<glyph unicode="&#xc9;" horiz-adv-x="1085" d="M205 0v1638h737v-163h-573v-574h573v-164h-573v-573h573v-164h-737zM440 1690v163l328 164v-164z" />
<glyph unicode="&#xca;" horiz-adv-x="1085" d="M205 0v1638h737v-163h-573v-574h573v-164h-573v-573h573v-164h-737zM338 1690v163l246 164l245 -164v-163l-245 163z" />
<glyph unicode="&#xcb;" horiz-adv-x="1085" d="M205 0v1638h737v-163h-573v-574h573v-164h-573v-573h573v-164h-737zM236 1843q0 51 35.5 87t86.5 36t87 -36t36 -87t-36 -87t-87 -36t-86.5 36t-35.5 87zM686 1843q0 51 36 87t87 36t87 -36t36 -87t-36 -87t-87 -36t-87 36t-36 87z" />
<glyph unicode="&#xcc;" horiz-adv-x="593" d="M92 1853v164l328 -164v-163zM215 0v1638h164v-1638h-164z" />
<glyph unicode="&#xcd;" horiz-adv-x="593" d="M174 1690v163l328 164v-164zM215 0v1638h164v-1638h-164z" />
<glyph unicode="&#xce;" horiz-adv-x="593" d="M51 1690v163l246 164l246 -164v-163l-246 163zM215 0v1638h164v-1638h-164z" />
<glyph unicode="&#xcf;" horiz-adv-x="593" d="M10 1843q0 51 36 87t87 36t87 -36t36 -87t-36 -87t-87 -36t-87 36t-36 87zM215 0v1638h164v-1638h-164zM338 1843q0 51 36 87t87 36t87 -36t36 -87t-36 -87t-87 -36t-87 36t-36 87z" />
<glyph unicode="&#xd0;" horiz-adv-x="1269" d="M154 748v143h71v747h441q183 0 311.5 -128.5t128.5 -311.5v-758q0 -183 -128.5 -311.5t-311.5 -128.5h-441v748h-71zM389 164h277q116 0 196 80t80 196v758q0 116 -80.5 196.5t-195.5 80.5h-277v-584h236v-143h-236v-584z" />
<glyph unicode="&#xd1;" horiz-adv-x="1331" d="M205 0v1638h164v-1638h-164zM276 1710q0 101 72.5 173.5t173.5 72.5q42 0 83.5 -16t70 -35.5t65 -35.5t68.5 -16q43 0 72.5 30t29.5 73h144q0 -101 -72.5 -173.5t-173.5 -72.5q-54 0 -106.5 25.5t-98.5 51t-82 25.5q-43 0 -72.5 -29.5t-29.5 -72.5h-144zM369 1638h168 l426 -1638h-168zM963 0v1638h163v-1638h-163z" />
<glyph unicode="&#xd2;" horiz-adv-x="1208" d="M164 389v860q0 183 128.5 312t311.5 129t311.5 -129t128.5 -312v-860q0 -183 -128.5 -311.5t-311.5 -128.5t-311.5 128.5t-128.5 311.5zM328 389q0 -115 80 -195.5t196 -80.5t196.5 80.5t80.5 195.5v860q0 115 -80.5 196t-196.5 81q-115 0 -195.5 -80.5t-80.5 -196.5 v-860zM420 1853v164l328 -164v-163z" />
<glyph unicode="&#xd3;" horiz-adv-x="1208" d="M164 389v860q0 183 128.5 312t311.5 129t311.5 -129t128.5 -312v-860q0 -183 -128.5 -311.5t-311.5 -128.5t-311.5 128.5t-128.5 311.5zM328 389q0 -115 80 -195.5t196 -80.5t196.5 80.5t80.5 195.5v860q0 115 -80.5 196t-196.5 81q-115 0 -195.5 -80.5t-80.5 -196.5 v-860zM461 1690v163l327 164v-164z" />
<glyph unicode="&#xd4;" horiz-adv-x="1208" d="M164 389v860q0 183 128.5 312t311.5 129t311.5 -129t128.5 -312v-860q0 -183 -128.5 -311.5t-311.5 -128.5t-311.5 128.5t-128.5 311.5zM328 389q0 -115 80 -195.5t196 -80.5t196.5 80.5t80.5 195.5v860q0 115 -80.5 196t-196.5 81q-115 0 -195.5 -80.5t-80.5 -196.5 v-860zM358 1690v163l246 164l246 -164v-163l-246 163z" />
<glyph unicode="&#xd5;" horiz-adv-x="1208" d="M164 389v860q0 183 128.5 312t311.5 129t311.5 -129t128.5 -312v-860q0 -183 -128.5 -311.5t-311.5 -128.5t-311.5 128.5t-128.5 311.5zM215 1710q0 101 72.5 173.5t173.5 72.5q42 0 83.5 -16t70 -35.5t65 -35.5t68.5 -16q43 0 72.5 30t29.5 73h143q0 -101 -72 -173.5 t-173 -72.5q-54 0 -106.5 25.5t-98.5 51t-82 25.5q-43 0 -73 -29.5t-30 -72.5h-143zM328 389q0 -115 80 -195.5t196 -80.5t196.5 80.5t80.5 195.5v860q0 115 -80.5 196t-196.5 81q-115 0 -195.5 -80.5t-80.5 -196.5v-860z" />
<glyph unicode="&#xd6;" horiz-adv-x="1208" d="M164 389v860q0 183 128.5 312t311.5 129t311.5 -129t128.5 -312v-860q0 -183 -128.5 -311.5t-311.5 -128.5t-311.5 128.5t-128.5 311.5zM256 1843q0 51 36 87t87 36t87 -36t36 -87t-36 -87t-87 -36t-87 36t-36 87zM328 389q0 -115 80 -195.5t196 -80.5t196.5 80.5 t80.5 195.5v860q0 115 -80.5 196t-196.5 81q-115 0 -195.5 -80.5t-80.5 -196.5v-860zM707 1843q0 51 35.5 87t86.5 36t87 -36t36 -87t-36 -87t-87 -36t-86.5 36t-35.5 87z" />
<glyph unicode="&#xd7;" horiz-adv-x="1187" d="M240 360l254 254l-254 254l100 101l254 -254l254 254l100 -101l-254 -254l254 -254l-100 -100l-254 254l-254 -254z" />
<glyph unicode="&#xd8;" horiz-adv-x="1208" d="M143 -41l88 195q-67 106 -67 235v860q0 183 128.5 312t311.5 129q154 0 277 -99l41 88h143l-88 -194q67 -106 67 -236v-860q0 -183 -128.5 -311.5t-311.5 -128.5q-156 0 -278 98l-39 -88h-144zM328 369l481 1065q-82 92 -205 92q-115 0 -195.5 -80.5t-80.5 -196.5v-860 v-20zM397 205q82 -92 207 -92q116 0 196.5 80.5t80.5 195.5v860q0 3 -1 10t-1 11z" />
<glyph unicode="&#xd9;" horiz-adv-x="1208" d="M164 389v1249h164v-1249q0 -115 80 -195.5t196 -80.5t196.5 80.5t80.5 195.5v1249h163v-1249q0 -183 -128.5 -311.5t-311.5 -128.5t-311.5 128.5t-128.5 311.5zM420 1853v164l328 -164v-163z" />
<glyph unicode="&#xda;" horiz-adv-x="1208" d="M164 389v1249h164v-1249q0 -115 80 -195.5t196 -80.5t196.5 80.5t80.5 195.5v1249h163v-1249q0 -183 -128.5 -311.5t-311.5 -128.5t-311.5 128.5t-128.5 311.5zM461 1690v163l327 164v-164z" />
<glyph unicode="&#xdb;" horiz-adv-x="1208" d="M164 389v1249h164v-1249q0 -115 80 -195.5t196 -80.5t196.5 80.5t80.5 195.5v1249h163v-1249q0 -183 -128.5 -311.5t-311.5 -128.5t-311.5 128.5t-128.5 311.5zM358 1690v163l246 164l246 -164v-163l-246 163z" />
<glyph unicode="&#xdc;" horiz-adv-x="1208" d="M164 389v1249h164v-1249q0 -115 80 -195.5t196 -80.5t196.5 80.5t80.5 195.5v1249h163v-1249q0 -183 -128.5 -311.5t-311.5 -128.5t-311.5 128.5t-128.5 311.5zM256 1843q0 51 36 87t87 36t87 -36t36 -87t-36 -87t-87 -36t-87 36t-36 87zM707 1843q0 51 35.5 87t86.5 36 t87 -36t36 -87t-36 -87t-87 -36t-86.5 36t-35.5 87z" />
<glyph unicode="&#xdd;" horiz-adv-x="1064" d="M20 1638h173l339 -819l340 819h172l-430 -1030v-608h-163v608zM410 1690v163l327 164v-164z" />
<glyph unicode="&#xde;" horiz-adv-x="1146" d="M205 0v1638h164v-368h266q186 0 318 -132.5t132 -318.5t-132 -318t-318 -132h-266v-369h-164zM369 532h266q119 0 203 84t84 203t-84 203t-203 84h-266v-574z" />
<glyph unicode="&#xdf;" horiz-adv-x="1167" d="M164 0v1249q0 183 128.5 312t311.5 129t311.5 -129t128.5 -312q0 -157 -98 -277t-248 -153q150 -33 248 -153t98 -277q0 -183 -128.5 -311.5t-311.5 -128.5v164q116 0 196.5 80.5t80.5 195.5t-80.5 196t-196.5 81v307q116 0 196.5 80.5t80.5 195.5t-80.5 196t-196.5 81 q-115 0 -195.5 -80.5t-80.5 -196.5v-1249h-164z" />
<glyph unicode="&#xe0;" d="M123 379q0 183 128.5 311.5t311.5 128.5h277q0 115 -81 196t-196 81t-195.5 -80.5t-80.5 -196.5h-164q0 183 128.5 312t311.5 129t312 -129t129 -312v-819h-154v111q-91 -162 -287 -162q-184 0 -312 124t-128 306zM287 379q0 -115 79.5 -190.5t196.5 -75.5 q114 0 195.5 80t81.5 196v266h-277q-115 0 -195.5 -80.5t-80.5 -195.5zM358 1544v176l328 -213v-176z" />
<glyph unicode="&#xe1;" d="M123 379q0 183 128.5 311.5t311.5 128.5h277q0 115 -81 196t-196 81t-195.5 -80.5t-80.5 -196.5h-164q0 183 128.5 312t311.5 129t312 -129t129 -312v-819h-154v111q-91 -162 -287 -162q-184 0 -312 124t-128 306zM287 379q0 -115 79.5 -190.5t196.5 -75.5 q114 0 195.5 80t81.5 196v266h-277q-115 0 -195.5 -80.5t-80.5 -195.5zM440 1331v176l328 213v-176z" />
<glyph unicode="&#xe2;" d="M123 379q0 183 128.5 311.5t311.5 128.5h277q0 115 -81 196t-196 81t-195.5 -80.5t-80.5 -196.5h-164q0 183 128.5 312t311.5 129t312 -129t129 -312v-819h-154v111q-91 -162 -287 -162q-184 0 -312 124t-128 306zM287 379q0 -115 79.5 -190.5t196.5 -75.5 q114 0 195.5 80t81.5 196v266h-277q-115 0 -195.5 -80.5t-80.5 -195.5zM317 1331v176l246 213l246 -213v-176l-246 213z" />
<glyph unicode="&#xe3;" d="M123 379q0 183 128.5 311.5t311.5 128.5h277q0 115 -81 196t-196 81t-195.5 -80.5t-80.5 -196.5h-164q0 183 128.5 312t311.5 129t312 -129t129 -312v-819h-154v111q-91 -162 -287 -162q-184 0 -312 124t-128 306zM174 1413q0 101 72.5 173.5t173.5 72.5q42 0 83.5 -16 t70 -35.5t65 -35.5t68.5 -16q43 0 72.5 30t29.5 73h143q0 -101 -72 -173.5t-173 -72.5q-43 0 -86 16t-71.5 35.5t-64 35.5t-65.5 16q-43 0 -73 -30t-30 -73h-143zM287 379q0 -115 79.5 -190.5t196.5 -75.5q114 0 195.5 80t81.5 196v266h-277q-115 0 -195.5 -80.5 t-80.5 -195.5z" />
<glyph unicode="&#xe4;" d="M123 379q0 183 128.5 311.5t311.5 128.5h277q0 115 -81 196t-196 81t-195.5 -80.5t-80.5 -196.5h-164q0 183 128.5 312t311.5 129t312 -129t129 -312v-819h-154v111q-91 -162 -287 -162q-184 0 -312 124t-128 306zM215 1556q0 51 36 87t87 36t87 -36t36 -87t-36 -86.5 t-87 -35.5t-87 35.5t-36 86.5zM287 379q0 -115 79.5 -190.5t196.5 -75.5q114 0 195.5 80t81.5 196v266h-277q-115 0 -195.5 -80.5t-80.5 -195.5zM666 1556q0 51 35.5 87t86.5 36t87 -36t36 -87t-36 -86.5t-87 -35.5t-86.5 35.5t-35.5 86.5z" />
<glyph unicode="&#xe5;" d="M123 379q0 183 128.5 311.5t311.5 128.5h277q0 115 -81 196t-196 81t-195.5 -80.5t-80.5 -196.5h-164q0 183 128.5 312t311.5 129t312 -129t129 -312v-819h-154v111q-91 -162 -287 -162q-184 0 -312 124t-128 306zM287 379q0 -115 79.5 -190.5t196.5 -75.5 q114 0 195.5 80t81.5 196v266h-277q-115 0 -195.5 -80.5t-80.5 -195.5zM379 1516q0 76 53.5 130t130.5 54t131 -54t54 -130t-54 -130.5t-131 -54.5q-76 0 -130 54t-54 131zM512 1516q0 -22 14.5 -37t36.5 -15t36.5 15t14.5 37t-14.5 36.5t-36.5 14.5t-36.5 -14.5 t-14.5 -36.5z" />
<glyph unicode="&#xe6;" horiz-adv-x="1843" d="M123 379q0 183 128.5 311.5t311.5 128.5h277q0 115 -81 196t-196 81t-195.5 -80.5t-80.5 -196.5h-164q0 183 128.5 312t311.5 129q116 0 210 -55.5t149 -151.5q55 96 148.5 151.5t209.5 55.5q183 0 311.5 -129t128.5 -312q0 -182 -128 -306t-312 -124h-276 q0 -115 80 -195.5t196 -80.5t196 80.5t80 195.5h164q0 -183 -128.5 -311.5t-311.5 -128.5q-116 0 -209.5 55t-148.5 150q-55 -95 -149 -150t-210 -55q-184 0 -312 124t-128 306zM287 379q0 -115 79.5 -190.5t196.5 -75.5q116 0 196.5 80.5t80.5 195.5v266h-277 q-115 0 -195.5 -80.5t-80.5 -195.5zM1004 553h276q117 0 196.5 75.5t79.5 190.5q0 116 -80.5 196.5t-195.5 80.5t-195.5 -80.5t-80.5 -196.5v-266z" />
<glyph unicode="&#xe7;" d="M123 389v430q0 183 128.5 312t311.5 129t312 -129t129 -312h-164q0 115 -81 196t-196 81t-195.5 -80.5t-80.5 -196.5v-430q0 -115 80.5 -195.5t195.5 -80.5q116 0 196.5 80.5t80.5 195.5h164q0 -183 -129 -311.5t-312 -128.5t-311.5 128.5t-128.5 311.5zM389 -307h184 q17 0 29 12t12 29t-12 29t-29 12h-102v123h102q67 0 115.5 -48t48.5 -116t-48.5 -116t-115.5 -48h-184v123z" />
<glyph unicode="&#xe8;" d="M123 389v430q0 183 128.5 312t311.5 129t312 -129t129 -312q0 -182 -128.5 -306t-312.5 -124h-276q0 -115 80.5 -195.5t195.5 -80.5q116 0 196.5 80.5t80.5 195.5h164q0 -183 -129 -311.5t-312 -128.5t-311.5 128.5t-128.5 311.5zM287 553h276q117 0 197 76t80 190 q0 115 -81 196t-196 81t-195.5 -80.5t-80.5 -196.5v-266zM358 1544v176l328 -213v-176z" />
<glyph unicode="&#xe9;" d="M123 389v430q0 183 128.5 312t311.5 129t312 -129t129 -312q0 -182 -128.5 -306t-312.5 -124h-276q0 -115 80.5 -195.5t195.5 -80.5q116 0 196.5 80.5t80.5 195.5h164q0 -183 -129 -311.5t-312 -128.5t-311.5 128.5t-128.5 311.5zM287 553h276q117 0 197 76t80 190 q0 115 -81 196t-196 81t-195.5 -80.5t-80.5 -196.5v-266zM440 1331v176l328 213v-176z" />
<glyph unicode="&#xea;" d="M123 389v430q0 183 128.5 312t311.5 129t312 -129t129 -312q0 -182 -128.5 -306t-312.5 -124h-276q0 -115 80.5 -195.5t195.5 -80.5q116 0 196.5 80.5t80.5 195.5h164q0 -183 -129 -311.5t-312 -128.5t-311.5 128.5t-128.5 311.5zM287 553h276q117 0 197 76t80 190 q0 115 -81 196t-196 81t-195.5 -80.5t-80.5 -196.5v-266zM317 1331v176l246 213l246 -213v-176l-246 213z" />
<glyph unicode="&#xeb;" d="M123 389v430q0 183 128.5 312t311.5 129t312 -129t129 -312q0 -182 -128.5 -306t-312.5 -124h-276q0 -115 80.5 -195.5t195.5 -80.5q116 0 196.5 80.5t80.5 195.5h164q0 -183 -129 -311.5t-312 -128.5t-311.5 128.5t-128.5 311.5zM215 1556q0 51 36 87t87 36t87 -36 t36 -87t-36 -86.5t-87 -35.5t-87 35.5t-36 86.5zM287 553h276q117 0 197 76t80 190q0 115 -81 196t-196 81t-195.5 -80.5t-80.5 -196.5v-266zM666 1556q0 51 35.5 87t86.5 36t87 -36t36 -87t-36 -86.5t-87 -35.5t-86.5 35.5t-35.5 86.5z" />
<glyph unicode="&#xec;" horiz-adv-x="491" d="M41 1544v176l328 -213v-176zM164 0v1208h164v-1208h-164z" />
<glyph unicode="&#xed;" horiz-adv-x="491" d="M123 1331v176l328 213v-176zM164 0v1208h164v-1208h-164z" />
<glyph unicode="&#xee;" horiz-adv-x="491" d="M0 1331v176l246 213l246 -213v-176l-246 213zM164 0v1208h164v-1208h-164z" />
<glyph unicode="&#xef;" horiz-adv-x="491" d="M-20 1556q0 51 35.5 87t86.5 36t87 -36t36 -87t-36 -86.5t-87 -35.5t-86.5 35.5t-35.5 86.5zM164 0v1208h164v-1208h-164zM266 1556q0 51 36 87t87 36t87 -36t36 -87t-36 -86.5t-87 -35.5t-87 35.5t-36 86.5z" />
<glyph unicode="&#xf0;" horiz-adv-x="1208" d="M164 389v430q0 183 128.5 312t311.5 129q180 0 277 -138v127q0 91 -52 162l-122 -80v174q-58 21 -103 21q-115 0 -195.5 -80.5t-80.5 -196.5h-164q0 183 128.5 312t311.5 129q140 0 256 -82l174 112v-176l-67 -45q77 -110 77 -250v-860q0 -183 -128.5 -311.5 t-311.5 -128.5t-311.5 128.5t-128.5 311.5zM328 389q0 -115 80 -195.5t196 -80.5t196.5 80.5t80.5 195.5v430q0 115 -80.5 196t-196.5 81q-115 0 -195.5 -80.5t-80.5 -196.5v-430z" />
<glyph unicode="&#xf1;" horiz-adv-x="1167" d="M164 0v1208h153v-102q44 73 117 113.5t170 40.5q183 0 311.5 -129t128.5 -312v-819h-163v819q0 115 -80.5 196t-196.5 81q-115 0 -195.5 -80.5t-80.5 -196.5v-819h-164zM195 1413q0 101 72 173.5t173 72.5q42 0 83.5 -16t70 -35.5t65 -35.5t68.5 -16q43 0 72.5 30 t29.5 73h144q0 -101 -72.5 -173.5t-173.5 -72.5q-43 0 -86 16t-71.5 35.5t-64 35.5t-65.5 16q-43 0 -72.5 -30t-29.5 -73h-143z" />
<glyph unicode="&#xf2;" d="M123 389v430q0 183 128.5 312t311.5 129t312 -129t129 -312v-430q0 -183 -129 -311.5t-312 -128.5t-311.5 128.5t-128.5 311.5zM287 389q0 -115 80.5 -195.5t195.5 -80.5q116 0 196.5 80.5t80.5 195.5v430q0 115 -81 196t-196 81t-195.5 -80.5t-80.5 -196.5v-430z M358 1544v176l328 -213v-176z" />
<glyph unicode="&#xf3;" d="M123 389v430q0 183 128.5 312t311.5 129t312 -129t129 -312v-430q0 -183 -129 -311.5t-312 -128.5t-311.5 128.5t-128.5 311.5zM287 389q0 -115 80.5 -195.5t195.5 -80.5q116 0 196.5 80.5t80.5 195.5v430q0 115 -81 196t-196 81t-195.5 -80.5t-80.5 -196.5v-430z M440 1331v176l328 213v-176z" />
<glyph unicode="&#xf4;" d="M123 389v430q0 183 128.5 312t311.5 129t312 -129t129 -312v-430q0 -183 -129 -311.5t-312 -128.5t-311.5 128.5t-128.5 311.5zM287 389q0 -115 80.5 -195.5t195.5 -80.5q116 0 196.5 80.5t80.5 195.5v430q0 115 -81 196t-196 81t-195.5 -80.5t-80.5 -196.5v-430z M317 1331v176l246 213l246 -213v-176l-246 213z" />
<glyph unicode="&#xf5;" d="M123 389v430q0 183 128.5 312t311.5 129t312 -129t129 -312v-430q0 -183 -129 -311.5t-312 -128.5t-311.5 128.5t-128.5 311.5zM174 1413q0 101 72.5 173.5t173.5 72.5q42 0 83.5 -16t70 -35.5t65 -35.5t68.5 -16q43 0 72.5 30t29.5 73h143q0 -101 -72 -173.5t-173 -72.5 q-43 0 -86 16t-71.5 35.5t-64 35.5t-65.5 16q-43 0 -73 -30t-30 -73h-143zM287 389q0 -115 80.5 -195.5t195.5 -80.5q116 0 196.5 80.5t80.5 195.5v430q0 115 -81 196t-196 81t-195.5 -80.5t-80.5 -196.5v-430z" />
<glyph unicode="&#xf6;" d="M123 389v430q0 183 128.5 312t311.5 129t312 -129t129 -312v-430q0 -183 -129 -311.5t-312 -128.5t-311.5 128.5t-128.5 311.5zM215 1556q0 51 36 87t87 36t87 -36t36 -87t-36 -86.5t-87 -35.5t-87 35.5t-36 86.5zM287 389q0 -115 80.5 -195.5t195.5 -80.5 q116 0 196.5 80.5t80.5 195.5v430q0 115 -81 196t-196 81t-195.5 -80.5t-80.5 -196.5v-430zM666 1556q0 51 35.5 87t86.5 36t87 -36t36 -87t-36 -86.5t-87 -35.5t-86.5 35.5t-35.5 86.5z" />
<glyph unicode="&#xf7;" horiz-adv-x="1187" d="M164 543v143h860v-143h-860zM440 113q0 63 45.5 108t108.5 45t108.5 -45t45.5 -108t-45.5 -108.5t-108.5 -45.5t-108.5 45.5t-45.5 108.5zM440 1096q0 63 45.5 108t108.5 45t108.5 -45t45.5 -108t-45.5 -108.5t-108.5 -45.5t-108.5 45.5t-45.5 108.5zM563 113 q0 -12 9.5 -21.5t21.5 -9.5t21.5 9.5t9.5 21.5t-9.5 21t-21.5 9t-21.5 -9t-9.5 -21zM563 1096q0 -12 9.5 -21.5t21.5 -9.5t21.5 9.5t9.5 21.5t-9.5 21t-21.5 9t-21.5 -9t-9.5 -21z" />
<glyph unicode="&#xf8;" d="M102 -41l103 172q-82 116 -82 258v430q0 183 128.5 312t311.5 129q144 0 268 -93l50 82h143l-104 -172q84 -117 84 -258v-430q0 -183 -129 -311.5t-312 -128.5q-147 0 -268 90l-49 -80h-144zM287 389q0 -57 16 -96l442 733q-77 70 -182 70q-115 0 -195.5 -80.5 t-80.5 -196.5v-430zM379 180q76 -67 184 -67q116 0 196.5 80.5t80.5 195.5v430q0 43 -17 96z" />
<glyph unicode="&#xf9;" horiz-adv-x="1167" d="M123 389v819h164v-819q0 -115 80.5 -195.5t195.5 -80.5q116 0 196.5 80.5t80.5 195.5v819h164v-1208h-154v111q-91 -162 -287 -162q-183 0 -311.5 128.5t-128.5 311.5zM379 1544v176l328 -213v-176z" />
<glyph unicode="&#xfa;" horiz-adv-x="1167" d="M123 389v819h164v-819q0 -115 80.5 -195.5t195.5 -80.5q116 0 196.5 80.5t80.5 195.5v819h164v-1208h-154v111q-91 -162 -287 -162q-183 0 -311.5 128.5t-128.5 311.5zM440 1331v176l328 213v-176z" />
<glyph unicode="&#xfb;" horiz-adv-x="1167" d="M123 389v819h164v-819q0 -115 80.5 -195.5t195.5 -80.5q116 0 196.5 80.5t80.5 195.5v819h164v-1208h-154v111q-91 -162 -287 -162q-183 0 -311.5 128.5t-128.5 311.5zM338 1331v176l246 213l245 -213v-176l-245 213z" />
<glyph unicode="&#xfc;" horiz-adv-x="1167" d="M123 389v819h164v-819q0 -115 80.5 -195.5t195.5 -80.5q116 0 196.5 80.5t80.5 195.5v819h164v-1208h-154v111q-91 -162 -287 -162q-183 0 -311.5 128.5t-128.5 311.5zM236 1556q0 51 35.5 87t86.5 36t87 -36t36 -87t-36 -86.5t-87 -35.5t-86.5 35.5t-35.5 86.5z M686 1556q0 51 36 87t87 36t87 -36t36 -87t-36 -86.5t-87 -35.5t-87 35.5t-36 86.5z" />
<glyph unicode="&#xfd;" horiz-adv-x="1064" d="M41 1208h170l321 -1208h-170zM410 1331v176l327 213v-176zM424 -410l108 410l322 1208h170l-430 -1618h-170z" />
<glyph unicode="&#xfe;" horiz-adv-x="1167" d="M164 -410v2048h164v-516q97 138 276 138q183 0 311.5 -129t128.5 -312v-430q0 -183 -128.5 -311.5t-311.5 -128.5q-180 0 -276 137v-496h-164zM328 389q0 -115 80 -195.5t196 -80.5t196.5 80.5t80.5 195.5v430q0 115 -80.5 196t-196.5 81q-115 0 -195.5 -80.5 t-80.5 -196.5v-430z" />
<glyph unicode="&#xff;" horiz-adv-x="1064" d="M41 1208h170l321 -1208h-170zM184 1556q0 51 36 87t87 36t87 -36t36 -87t-36 -86.5t-87 -35.5t-87 35.5t-36 86.5zM424 -410l108 410l322 1208h170l-430 -1618h-170zM635 1556q0 51 36 87t87 36t87 -36t36 -87t-36 -86.5t-87 -35.5t-87 35.5t-36 86.5z" />
<glyph unicode="&#x152;" horiz-adv-x="1761" d="M164 389v860q0 183 128.5 312t311.5 129q171 0 277 -125v73h737v-163h-574v-574h574v-164h-574v-573h574v-164h-737v72q-107 -123 -277 -123q-183 0 -311.5 128.5t-128.5 311.5zM328 389q0 -115 80 -195.5t196 -80.5t196.5 80.5t80.5 195.5v860q0 115 -80.5 196 t-196.5 81q-115 0 -195.5 -80.5t-80.5 -196.5v-860z" />
<glyph unicode="&#x153;" horiz-adv-x="1843" d="M123 389v430q0 183 128.5 312t311.5 129q108 0 203 -50t156 -135q62 86 155 135.5t203 49.5q183 0 311.5 -129t128.5 -312q0 -182 -128 -306t-312 -124h-276v-12q5 -111 84.5 -187.5t191.5 -76.5q116 0 196 80.5t80 195.5h164q0 -183 -128.5 -311.5t-311.5 -128.5 q-111 0 -204 49t-154 135q-61 -86 -155.5 -135t-203.5 -49q-183 0 -311.5 128.5t-128.5 311.5zM287 389q0 -115 80.5 -195.5t195.5 -80.5q116 0 196.5 80.5t80.5 195.5v430q0 115 -81 196t-196 81t-195.5 -80.5t-80.5 -196.5v-430zM1004 553h276q117 0 196.5 75.5 t79.5 190.5q0 116 -80.5 196.5t-195.5 80.5t-195.5 -80.5t-80.5 -196.5v-266z" />
<glyph unicode="&#x178;" horiz-adv-x="1064" d="M20 1638h173l339 -819l340 819h172l-430 -1030v-608h-163v608zM184 1843q0 51 36 87t87 36t87 -36t36 -87t-36 -87t-87 -36t-87 36t-36 87zM635 1843q0 51 36 87t87 36t87 -36t36 -87t-36 -87t-87 -36t-87 36t-36 87z" />
<glyph unicode="&#x2c6;" d="M317 1331v176l246 213l246 -213v-176l-246 213z" />
<glyph unicode="&#x2dc;" d="M174 1413q0 101 72.5 173.5t173.5 72.5q42 0 83.5 -16t70 -35.5t65 -35.5t68.5 -16q43 0 72.5 30t29.5 73h143q0 -101 -72 -173.5t-173 -72.5q-43 0 -86 16t-71.5 35.5t-64 35.5t-65.5 16q-43 0 -73 -30t-30 -73h-143z" />
<glyph unicode="&#x2013;" horiz-adv-x="1187" d="M164 543v143h860v-143h-860z" />
<glyph unicode="&#x2014;" horiz-adv-x="1761" d="M164 543v143h1433v-143h-1433z" />
<glyph unicode="&#x2018;" horiz-adv-x="675" d="M164 1208v471h143v-317h10q63 0 108.5 -45.5t45.5 -108.5t-45.5 -108t-108.5 -45t-108 45t-45 108zM287 1208q0 -12 9 -21t21 -9t21.5 9t9.5 21t-9.5 21.5t-21.5 9.5t-21 -9.5t-9 -21.5z" />
<glyph unicode="&#x2019;" horiz-adv-x="675" d="M184 1556q0 63 45.5 108.5t108.5 45.5t108.5 -45.5t45.5 -108.5v-471h-144v318h-10q-63 0 -108.5 45t-45.5 108zM307 1556q0 -12 9.5 -21t21.5 -9t21.5 9t9.5 21t-9.5 21.5t-21.5 9.5t-21.5 -9.5t-9.5 -21.5z" />
<glyph unicode="&#x201a;" horiz-adv-x="675" d="M184 82q0 63 45.5 108.5t108.5 45.5t108.5 -45.5t45.5 -108.5v-471h-144v317h-10q-63 0 -108.5 45.5t-45.5 108.5zM307 82q0 -12 9.5 -21.5t21.5 -9.5t21.5 9.5t9.5 21.5t-9.5 21.5t-21.5 9.5t-21.5 -9.5t-9.5 -21.5z" />
<glyph unicode="&#x201c;" horiz-adv-x="1085" d="M164 1208v471h143v-317h10q63 0 108.5 -45.5t45.5 -108.5t-45.5 -108t-108.5 -45t-108 45t-45 108zM287 1208q0 -12 9 -21t21 -9t21.5 9t9.5 21t-9.5 21.5t-21.5 9.5t-21 -9.5t-9 -21.5zM573 1208v471h144v-317h10q63 0 108.5 -45.5t45.5 -108.5t-45.5 -108t-108.5 -45 t-108.5 45t-45.5 108zM696 1208q0 -12 9.5 -21t21.5 -9t21.5 9t9.5 21t-9.5 21.5t-21.5 9.5t-21.5 -9.5t-9.5 -21.5z" />
<glyph unicode="&#x201d;" horiz-adv-x="1085" d="M184 1556q0 63 45.5 108.5t108.5 45.5t108.5 -45.5t45.5 -108.5v-471h-144v318h-10q-63 0 -108.5 45t-45.5 108zM307 1556q0 -12 9.5 -21t21.5 -9t21.5 9t9.5 21t-9.5 21.5t-21.5 9.5t-21.5 -9.5t-9.5 -21.5zM594 1556q0 63 45.5 108.5t108.5 45.5t108 -45.5t45 -108.5 v-471h-143v318h-10q-63 0 -108.5 45t-45.5 108zM717 1556q0 -12 9.5 -21t21.5 -9t21 9t9 21t-9 21.5t-21 9.5t-21.5 -9.5t-9.5 -21.5z" />
<glyph unicode="&#x201e;" horiz-adv-x="1085" d="M184 82q0 63 45.5 108.5t108.5 45.5t108.5 -45.5t45.5 -108.5v-471h-144v317h-10q-63 0 -108.5 45.5t-45.5 108.5zM307 82q0 -12 9.5 -21.5t21.5 -9.5t21.5 9.5t9.5 21.5t-9.5 21.5t-21.5 9.5t-21.5 -9.5t-9.5 -21.5zM594 82q0 63 45.5 108.5t108.5 45.5t108 -45.5 t45 -108.5v-471h-143v317h-10q-63 0 -108.5 45.5t-45.5 108.5zM717 82q0 -12 9.5 -21.5t21.5 -9.5t21 9.5t9 21.5t-9 21.5t-21 9.5t-21.5 -9.5t-9.5 -21.5z" />
<glyph unicode="&#x2022;" horiz-adv-x="1105" d="M317 614q0 97 69.5 166.5t166.5 69.5t166 -69.5t69 -166.5t-69 -166t-166 -69t-166.5 69t-69.5 166z" />
<glyph unicode="&#x2039;" horiz-adv-x="757" d="M164 440v174l430 -327v-174zM164 614v174l430 328v-174z" />
<glyph unicode="&#x203a;" horiz-adv-x="757" d="M164 113v174l430 327v-174zM164 942v174l430 -328v-174z" />
<glyph unicode="&#x20ac;" horiz-adv-x="1187" d="M92 543v143h72v266h-72v144h72v153q0 183 128.5 312t311.5 129t311.5 -129t128.5 -312h-163q0 115 -80.5 196t-196.5 81q-115 0 -195.5 -80.5t-80.5 -196.5v-153h276v-144h-276v-266h276v-143h-276v-154q0 -115 80 -195.5t196 -80.5t196.5 80.5t80.5 195.5h163 q0 -183 -128.5 -311.5t-311.5 -128.5t-311.5 128.5t-128.5 311.5v154h-72z" />
<glyph unicode="&#x2122;" horiz-adv-x="1802" d="M92 1505v133h553v-133h-205v-809h-133v809h-215zM748 696v942h133v-942h-133zM881 1638h133l184 -942h-133zM1198 696l195 942h123l-185 -942h-133zM1516 696v942h133v-942h-133z" />
<glyph unicode="&#xe000;" horiz-adv-x="1208" d="M0 0v1208h1208v-1208h-1208z" />
</font>
</defs>
</svg>
